<svg xmlns="http://www.w3.org/2000/svg" style="display: none;"><symbol id="facebook" viewBox="0 0 512 512"><title>facebook</title><path d="m437 0h-362c-41.351562 0-75 33.648438-75 75v362c0 41.351562 33.648438 75 75 75h151v-181h-60v-90h60v-61c0-49.628906 40.371094-90 90-90h91v90h-91v61h91l-15 90h-76v181h121c41.351562 0 75-33.648438 75-75v-362c0-41.351562-33.648438-75-75-75zm0 0"/></symbol><symbol id="instagram" viewBox="0 0 512 512"><title>instagram</title><path d="m437 0h-362c-41.351562 0-75 33.648438-75 75v362c0 41.351562 33.648438 75 75 75h362c41.351562 0 75-33.648438 75-75v-362c0-41.351562-33.648438-75-75-75zm-180 390c-74.441406 0-135-60.558594-135-135s60.558594-135 135-135 135 60.558594 135 135-60.558594 135-135 135zm150-240c-24.8125 0-45-20.1875-45-45s20.1875-45 45-45 45 20.1875 45 45-20.1875 45-45 45zm0 0"/><path d="m407 90c-8.277344 0-15 6.722656-15 15s6.722656 15 15 15 15-6.722656 15-15-6.722656-15-15-15zm0 0"/><path d="m257 150c-57.890625 0-105 47.109375-105 105s47.109375 105 105 105 105-47.109375 105-105-47.109375-105-105-105zm0 0"/></symbol><symbol id="snapchat" viewBox="0 0 512 512"><title>snapchat</title><path d="m475.074219 0h-438.148438c-20.394531 0-36.925781 16.53125-36.925781 36.925781v438.148438c0 20.394531 16.53125 36.925781 36.925781 36.925781h438.148438c20.394531 0 36.925781-16.53125 36.925781-36.925781v-438.148438c0-20.394531-16.53125-36.925781-36.925781-36.925781zm-65.757813 338.65625c-1.84375 4.296875-10.132812 10.402344-39.125 14.878906-2.375.363282-3.292968 3.453125-4.707031 9.925782-.515625 2.355468-1.035156 4.671874-1.75 7.105468-.617187 2.109375-1.933594 3.097656-4.148437 3.097656h-.359376c-1.539062 0-3.71875-.277343-6.488281-.820312-4.910156-.957031-10.414062-1.839844-17.417969-1.839844-4.089843 0-8.320312.351563-12.574218 1.054688-8.699219 1.453125-16.085938 6.664062-23.90625 12.195312-11.363282 8.039063-23.09375 16.332032-41.378906 16.332032-.796876 0-1.574219-.027344-2.359376-.0625-.5.042968-1.019531.0625-1.539062.0625-18.277344 0-30.007812-8.289063-41.351562-16.316407-7.832032-5.53125-15.226563-10.757812-23.9375-12.210937-4.25-.703125-8.480469-1.054688-12.5625-1.054688-7.371094 0-13.175782 1.136719-17.421876 1.964844-2.574218.503906-4.800781.9375-6.492187.9375-1.765625 0-3.675781-.382812-4.507813-3.222656-.722656-2.464844-1.242187-4.84375-1.75-7.15625-1.296874-5.929688-2.214843-9.578125-4.699218-9.960938-28.988282-4.476562-37.289063-10.585937-39.136719-14.917968-.257813-.617188-.414063-1.242188-.445313-1.851563-.09375-1.667969 1.082032-3.140625 2.730469-3.40625 44.558594-7.335937 64.542969-52.886719 65.375-54.820313.019531-.046874.042969-.101562.070313-.152343 2.726562-5.527344 3.257812-10.328125 1.59375-14.261719-3.058594-7.203125-13.035156-10.371094-19.636719-12.464844-1.613281-.515625-3.144531-.996094-4.355469-1.476562-13.175781-5.207032-14.269531-10.550782-13.75-13.273438.882813-4.644531 7.085938-7.882812 12.105469-7.882812 1.371094 0 2.582031.246094 3.601563.722656 5.929687 2.773438 11.269531 4.183594 15.882812 4.183594 6.367188 0 9.148438-2.675782 9.488281-3.027344-.167969-3.015625-.367187-6.167969-.570312-9.421875-1.328125-21.0625-2.976563-47.246094 3.695312-62.1875 19.976563-44.789063 62.335938-48.273437 74.847657-48.273437.320312 0 5.484374-.054688 5.484374-.054688h.738282c12.535156 0 54.996094 3.484375 74.980468 48.300781 6.667969 14.949219 5.019532 41.152344 3.691407 62.203125l-.058594.917969c-.183594 2.929687-.363281 5.777344-.511719 8.507813.320313.328124 2.878906 2.785156 8.648438 3.007812h.003906c4.394531-.167969 9.433594-1.570312 14.96875-4.15625 1.617188-.761719 3.421875-.921875 4.644531-.921875 1.878907 0 3.773438.367187 5.347657 1.019531l.101562.042969c4.472656 1.585937 7.40625 4.71875 7.46875 8 .058594 3.085937-2.300781 7.726563-13.855469 12.292969-1.199219.472656-2.730469.957031-4.355469 1.472656-6.609374 2.09375-16.578124 5.265625-19.636718 12.464844-1.667969 3.9375-1.136719 8.730468 1.59375 14.257812.023437.054688.050781.105469.074218.160156.828126 1.933594 20.789063 47.46875 65.375 54.816407 1.644532.269531 2.824219 1.742187 2.730469 3.402343-.035156.625-.1875 1.253907-.453125 1.867188zm0 0"/></symbol><symbol id="youtube" viewBox="0 0 512 512"><title>youtube</title><path d="m224.113281 303.960938 83.273438-47.960938-83.273438-47.960938zm0 0"/><path d="m475.074219 0h-438.148438c-20.394531 0-36.925781 16.53125-36.925781 36.925781v438.148438c0 20.394531 16.53125 36.925781 36.925781 36.925781h438.148438c20.394531 0 36.925781-16.53125 36.925781-36.925781v-438.148438c0-20.394531-16.53125-36.925781-36.925781-36.925781zm-59.113281 256.261719s0 51.917969-6.585938 76.953125c-3.691406 13.703125-14.496094 24.507812-28.199219 28.195312-25.035156 6.589844-125.175781 6.589844-125.175781 6.589844s-99.878906 0-125.175781-6.851562c-13.703125-3.6875-24.507813-14.496094-28.199219-28.199219-6.589844-24.769531-6.589844-76.949219-6.589844-76.949219s0-51.914062 6.589844-76.949219c3.6875-13.703125 14.757812-24.773437 28.199219-28.460937 25.035156-6.589844 125.175781-6.589844 125.175781-6.589844s100.140625 0 125.175781 6.851562c13.703125 3.6875 24.507813 14.496094 28.199219 28.199219 6.851562 25.035157 6.585938 77.210938 6.585938 77.210938zm0 0"/></symbol><symbol id="twitter" viewBox="0 0 512 512"><title>twitter</title><path d="m475.074219 0h-438.148438c-20.394531 0-36.925781 16.53125-36.925781 36.925781v438.148438c0 20.394531 16.53125 36.925781 36.925781 36.925781h438.148438c20.394531 0 36.925781-16.53125 36.925781-36.925781v-438.148438c0-20.394531-16.53125-36.925781-36.925781-36.925781zm-102.1875 199.601562c.113281 2.519532.167969 5.050782.167969 7.59375 0 77.644532-59.101563 167.179688-167.183594 167.183594h.003906-.003906c-33.183594 0-64.0625-9.726562-90.066406-26.394531 4.597656.542969 9.277343.8125 14.015624.8125 27.53125 0 52.867188-9.390625 72.980469-25.152344-25.722656-.476562-47.410156-17.464843-54.894531-40.8125 3.582031.6875 7.265625 1.0625 11.042969 1.0625 5.363281 0 10.558593-.722656 15.496093-2.070312-26.886718-5.382813-47.140624-29.144531-47.140624-57.597657 0-.265624 0-.503906.007812-.75 7.917969 4.402344 16.972656 7.050782 26.613281 7.347657-15.777343-10.527344-26.148437-28.523438-26.148437-48.910157 0-10.765624 2.910156-20.851562 7.957031-29.535156 28.976563 35.554688 72.28125 58.9375 121.117187 61.394532-1.007812-4.304688-1.527343-8.789063-1.527343-13.398438 0-32.4375 26.316406-58.753906 58.765625-58.753906 16.902344 0 32.167968 7.144531 42.890625 18.566406 13.386719-2.640625 25.957031-7.53125 37.3125-14.261719-4.394531 13.714844-13.707031 25.222657-25.839844 32.5 11.886719-1.421875 23.214844-4.574219 33.742187-9.253906-7.863281 11.785156-17.835937 22.136719-29.308593 30.429687zm0 0"/></symbol></svg>