<?xml version="1.0" encoding="iso-8859-1"?>
<!-- Generator: Adobe Illustrator 24.1.1, SVG Export Plug-In . SVG Version: 6.00 Build 0)  -->
<svg version="1.1" class="splash_bg" xmlns="http://www.w3.org/2000/svg" xmlns:xlink="http://www.w3.org/1999/xlink" x="0px" y="0px"
	 width="481px" height="1024px" viewBox="0 0 481 1024" style="enable-background:new 0 0 481 1024;" xml:space="preserve">
<path style="fill:none;stroke:#000000;stroke-miterlimit:10;" d="M450.5-0.5c-215,346,132,678-1,1024"/>
<path style="fill:none;stroke:#000000;stroke-miterlimit:10;" d="M408.5-0.5c-215,346,132,678-1,1024"/>
<path style="fill:none;stroke:#000000;stroke-miterlimit:10;" d="M366.5-0.5c-215,346,132,678-1,1024"/>
<path style="fill:none;stroke:#000000;stroke-miterlimit:10;" d="M324.5-0.5c-215,346,132,678-1,1024"/>
<path style="fill:none;stroke:#000000;stroke-miterlimit:10;" d="M282.5-0.5c-215,346,132,678-1,1024"/>
<path style="fill:none;stroke:#000000;stroke-miterlimit:10;" d="M240.5-0.5c-215,346,132,678-1,1024"/>
<path style="fill:none;stroke:#000000;stroke-miterlimit:10;" d="M198.5-0.5c-215,346,132,678-1,1024"/>
<path style="fill:none;stroke:#000000;stroke-miterlimit:10;" d="M156.5-0.5c-215,346,132,678-1,1024"/>
<path style="fill:none;stroke:#000000;stroke-miterlimit:10;" d="M114.5-0.5c-215,346,132,678-1,1024"/>
<path style="fill:none;stroke:#000000;stroke-miterlimit:10;" d="M72.5-0.5c-215,346,132,678-1,1024"/>
</svg>
